# Wavefront OBJ file automatically generated by Tiled2Unity

# Vertices (Count = 256)
v -5 -15 0
v -6 -15 0
v -6 -14 0
v -5 -14 0
v -7 -15 0
v -7 -14 0
v -8 -15 0
v -9 -15 0
v -9 -14 0
v -8 -14 0
v -10 -15 0
v -10 -14 0
v -6 -13 0
v -5 -13 0
v -10 -13 0
v -9 -13 0
v -6 -12 0
v -5 -12 0
v -10 -12 0
v -9 -12 0
v -6 -11 0
v -5 -11 0
v -10 -11 0
v -9 -11 0
v -6 -10 0
v -5 -10 0
v -10 -10 0
v -9 -10 0
v -6 -9 0
v -5 -9 0
v -10 -9 0
v -9 -9 0
v -6 -8 0
v -5 -8 0
v -10 -8 0
v -9 -8 0
v -6 -7 0
v -5 -7 0
v -10 -7 0
v -9 -7 0
v -3 -7 0
v -4 -7 0
v -4 -6 0
v -3 -6 0
v -5 -6 0
v -6 -6 0
v -10 -6 0
v -9 -6 0
v -11 -7 0
v -11 -6 0
v -12 -7 0
v -12 -6 0
v -4 -5 0
v -3 -5 0
v -12 -5 0
v -11 -5 0
v -4 -4 0
v -3 -4 0
v -7 -5 0
v -8 -5 0
v -8 -4 0
v -7 -4 0
v -12 -4 0
v -11 -4 0
v -4 -3 0
v -3 -3 0
v -12 -3 0
v -11 -3 0
v -4 -2 0
v -3 -2 0
v -6 -3 0
v -7 -3 0
v -7 -2 0
v -6 -2 0
v -8 -3 0
v -9 -3 0
v -9 -2 0
v -8 -2 0
v -12 -2 0
v -11 -2 0
v -4 -1 0
v -3 -1 0
v -5 -2 0
v -5 -1 0
v -6 -1 0
v -7 -1 0
v -8 -1 0
v -9 -1 0
v -10 -2 0
v -10 -1 0
v -11 -1 0
v -12 -1 0
v -4 0 0
v -3 0 0
v -5 0 0
v -6 0 0
v -7 0 0
v -8 0 0
v -9 0 0
v -10 0 0
v -11 0 0
v -12 0 0
v 0 -15 0
v -1 -15 0
v -1 -14 0
v 0 -14 0
v -2 -15 0
v -2 -14 0
v -3 -15 0
v -3 -14 0
v -4 -15 0
v -4 -14 0
v -11 -15 0
v -11 -14 0
v -12 -15 0
v -12 -14 0
v -13 -15 0
v -13 -14 0
v -14 -15 0
v -14 -14 0
v -15 -15 0
v -15 -14 0
v -1 -13 0
v 0 -13 0
v -2 -13 0
v -3 -13 0
v -4 -13 0
v -7 -13 0
v -8 -13 0
v -11 -13 0
v -12 -13 0
v -13 -13 0
v -14 -13 0
v -15 -13 0
v -1 -12 0
v 0 -12 0
v -2 -12 0
v -3 -12 0
v -4 -12 0
v -7 -12 0
v -8 -12 0
v -11 -12 0
v -12 -12 0
v -13 -12 0
v -14 -12 0
v -15 -12 0
v -1 -11 0
v 0 -11 0
v -2 -11 0
v -3 -11 0
v -4 -11 0
v -7 -11 0
v -8 -11 0
v -11 -11 0
v -12 -11 0
v -13 -11 0
v -14 -11 0
v -15 -11 0
v -1 -10 0
v 0 -10 0
v -2 -10 0
v -3 -10 0
v -4 -10 0
v -7 -10 0
v -8 -10 0
v -11 -10 0
v -12 -10 0
v -13 -10 0
v -14 -10 0
v -15 -10 0
v -1 -9 0
v 0 -9 0
v -2 -9 0
v -3 -9 0
v -4 -9 0
v -7 -9 0
v -8 -9 0
v -11 -9 0
v -12 -9 0
v -13 -9 0
v -14 -9 0
v -15 -9 0
v -1 -8 0
v 0 -8 0
v -2 -8 0
v -3 -8 0
v -4 -8 0
v -7 -8 0
v -8 -8 0
v -11 -8 0
v -12 -8 0
v -13 -8 0
v -14 -8 0
v -15 -8 0
v -1 -7 0
v 0 -7 0
v -2 -7 0
v -7 -7 0
v -8 -7 0
v -13 -7 0
v -14 -7 0
v -15 -7 0
v -1 -6 0
v 0 -6 0
v -2 -6 0
v -7 -6 0
v -8 -6 0
v -13 -6 0
v -14 -6 0
v -15 -6 0
v -1 -5 0
v 0 -5 0
v -2 -5 0
v -5 -5 0
v -6 -5 0
v -9 -5 0
v -10 -5 0
v -13 -5 0
v -14 -5 0
v -15 -5 0
v -1 -4 0
v 0 -4 0
v -2 -4 0
v -5 -4 0
v -6 -4 0
v -9 -4 0
v -10 -4 0
v -13 -4 0
v -14 -4 0
v -15 -4 0
v -1 -3 0
v 0 -3 0
v -2 -3 0
v -5 -3 0
v -10 -3 0
v -13 -3 0
v -14 -3 0
v -15 -3 0
v -1 -2 0
v 0 -2 0
v -2 -2 0
v -13 -2 0
v -14 -2 0
v -15 -2 0
v -1 -1 0
v 0 -1 0
v -2 -1 0
v -13 -1 0
v -14 -1 0
v -15 -1 0
v -1 0 0
v 0 0 0
v -2 0 0
v -13 0 0
v -14 0 0
v -15 0 0

# Texture cooridinates (Count = 104)
vt 0.5152107 5.918741E-05
vt 0.9999408 5.918741E-05
vt 0.9999408 0.4847893
vt 0.5152107 0.4847893
vt 0.4380145 0.5494334
vt 0.4214896 0.5494334
vt 0.4214896 0.5798442
vt 0.4380145 0.5798442
vt 0.3688037 0.5817528
vt 0.3853286 0.5817528
vt 0.3853286 0.6121635
vt 0.3688037 0.6121635
vt 0.4566136 0.5817528
vt 0.4731385 0.5817528
vt 0.4731385 0.6121635
vt 0.4566136 0.6121635
vt 0.3677666 0.5817528
vt 0.3512417 0.5817528
vt 0.3512417 0.6121635
vt 0.3677666 0.6121635
vt 0.1053739 0.8726273
vt 0.1218988 0.8726273
vt 0.1218988 0.9030381
vt 0.1053739 0.9030381
vt 0.3863657 0.5494334
vt 0.4028905 0.5494334
vt 0.4028905 0.5798442
vt 0.3863657 0.5798442
vt 0.08781193 0.8726273
vt 0.1043368 0.8726273
vt 0.1043368 0.9030381
vt 0.08781193 0.9030381
vt 0.08781193 0.9049467
vt 0.1043368 0.9049467
vt 0.1043368 0.9353575
vt 0.08781193 0.9353575
vt 0.1053739 0.9049467
vt 0.1218988 0.9049467
vt 0.1218988 0.9353575
vt 0.1053739 0.9353575
vt 0.4039276 0.5494334
vt 0.4204525 0.5494334
vt 0.4204525 0.5798442
vt 0.4039276 0.5798442
vt 0.4214896 0.5817528
vt 0.4380145 0.5817528
vt 0.4380145 0.6121635
vt 0.4214896 0.6121635
vt 0.6673574 0.3231976
vt 0.6838823 0.3231976
vt 0.6838823 0.3536084
vt 0.6673574 0.3536084
vt 0.6663203 0.3231976
vt 0.6497954 0.3231976
vt 0.6497954 0.3536084
vt 0.6663203 0.3536084
vt 0.5444235 0.3231976
vt 0.5609484 0.3231976
vt 0.5609484 0.3536084
vt 0.5444235 0.3536084
vt 0.4039276 0.5817528
vt 0.4204525 0.5817528
vt 0.4204525 0.6121635
vt 0.4039276 0.6121635
vt 0.4566136 0.5494334
vt 0.4731385 0.5494334
vt 0.4731385 0.5798442
vt 0.4566136 0.5798442
vt 0.2283078 0.9372661
vt 0.2448327 0.9372661
vt 0.2448327 0.9676769
vt 0.2283078 0.9676769
vt 0.5971094 0.8726273
vt 0.6136343 0.8726273
vt 0.6136343 0.9030381
vt 0.5971094 0.9030381
vt 0.2458698 0.7110304
vt 0.2623947 0.7110304
vt 0.2623947 0.7414411
vt 0.2458698 0.7414411
vt 0.8605392 0.6787109
vt 0.8770641 0.6787109
vt 0.8770641 0.7091218
vt 0.8605392 0.7091218
vt 0.3688037 0.7110304
vt 0.3853286 0.7110304
vt 0.3853286 0.7414411
vt 0.3688037 0.7414411
vt 0.3863657 0.7433497
vt 0.4028905 0.7433497
vt 0.4028905 0.7737606
vt 0.3863657 0.7737606
vt 0.9307871 0.6787109
vt 0.9473121 0.6787109
vt 0.9473121 0.7091218
vt 0.9307871 0.7091218
vt 0.7200434 0.8726273
vt 0.7365682 0.8726273
vt 0.7365682 0.9030381
vt 0.7200434 0.9030381
vt 0.7376053 0.8726273
vt 0.7541302 0.8726273
vt 0.7541302 0.9030381
vt 0.7376053 0.9030381

# Normal
vn 0 0 -1

# Groups (Count = 5)

g mesh_0001
f 1/1/1 2/2/1 3/3/1 4/4/1
f 2/1/1 5/2/1 6/3/1 3/4/1
f 7/1/1 8/2/1 9/3/1 10/4/1
f 8/1/1 11/2/1 12/3/1 9/4/1
f 4/1/1 3/2/1 13/3/1 14/4/1
f 9/1/1 12/2/1 15/3/1 16/4/1
f 14/1/1 13/2/1 17/3/1 18/4/1
f 16/1/1 15/2/1 19/3/1 20/4/1
f 18/1/1 17/2/1 21/3/1 22/4/1
f 20/1/1 19/2/1 23/3/1 24/4/1
f 22/1/1 21/2/1 25/3/1 26/4/1
f 24/1/1 23/2/1 27/3/1 28/4/1
f 26/1/1 25/2/1 29/3/1 30/4/1
f 28/1/1 27/2/1 31/3/1 32/4/1
f 30/1/1 29/2/1 33/3/1 34/4/1
f 32/1/1 31/2/1 35/3/1 36/4/1
f 34/1/1 33/2/1 37/3/1 38/4/1
f 36/1/1 35/2/1 39/3/1 40/4/1
f 41/1/1 42/2/1 43/3/1 44/4/1
f 42/1/1 38/2/1 45/3/1 43/4/1
f 38/1/1 37/2/1 46/3/1 45/4/1
f 40/1/1 39/2/1 47/3/1 48/4/1
f 39/1/1 49/2/1 50/3/1 47/4/1
f 49/1/1 51/2/1 52/3/1 50/4/1
f 44/1/1 43/2/1 53/3/1 54/4/1
f 50/1/1 52/2/1 55/3/1 56/4/1
f 54/1/1 53/2/1 57/3/1 58/4/1
f 59/1/1 60/2/1 61/3/1 62/4/1
f 56/1/1 55/2/1 63/3/1 64/4/1
f 58/1/1 57/2/1 65/3/1 66/4/1
f 64/1/1 63/2/1 67/3/1 68/4/1
f 66/1/1 65/2/1 69/3/1 70/4/1
f 71/1/1 72/2/1 73/3/1 74/4/1
f 75/1/1 76/2/1 77/3/1 78/4/1
f 68/1/1 67/2/1 79/3/1 80/4/1
f 70/1/1 69/2/1 81/3/1 82/4/1
f 69/1/1 83/2/1 84/3/1 81/4/1
f 83/1/1 74/2/1 85/3/1 84/4/1
f 74/1/1 73/2/1 86/3/1 85/4/1
f 73/1/1 78/2/1 87/3/1 86/4/1
f 78/1/1 77/2/1 88/3/1 87/4/1
f 77/1/1 89/2/1 90/3/1 88/4/1
f 89/1/1 80/2/1 91/3/1 90/4/1
f 80/1/1 79/2/1 92/3/1 91/4/1
f 82/1/1 81/2/1 93/3/1 94/4/1
f 81/1/1 84/2/1 95/3/1 93/4/1
f 84/1/1 85/2/1 96/3/1 95/4/1
f 85/1/1 86/2/1 97/3/1 96/4/1
f 86/1/1 87/2/1 98/3/1 97/4/1
f 87/1/1 88/2/1 99/3/1 98/4/1
f 88/1/1 90/2/1 100/3/1 99/4/1
f 90/1/1 91/2/1 101/3/1 100/4/1
f 91/1/1 92/2/1 102/3/1 101/4/1

g mesh_0002
f 103/5/1 104/6/1 105/7/1 106/8/1
f 104/9/1 107/10/1 108/11/1 105/12/1
f 107/9/1 109/10/1 110/11/1 108/12/1
f 109/9/1 111/10/1 112/11/1 110/12/1
f 111/9/1 1/10/1 4/11/1 112/12/1
f 1/13/1 2/14/1 3/15/1 4/16/1
f 2/17/1 5/18/1 6/19/1 3/20/1
f 5/21/1 7/22/1 10/23/1 6/24/1
f 7/18/1 8/17/1 9/20/1 10/19/1
f 8/13/1 11/14/1 12/15/1 9/16/1
f 11/9/1 113/10/1 114/11/1 12/12/1
f 113/9/1 115/10/1 116/11/1 114/12/1
f 115/9/1 117/10/1 118/11/1 116/12/1
f 117/9/1 119/10/1 120/11/1 118/12/1
f 119/6/1 121/5/1 122/8/1 120/7/1
f 106/25/1 105/26/1 123/27/1 124/28/1
f 105/29/1 108/30/1 125/31/1 123/32/1
f 108/29/1 110/30/1 126/31/1 125/32/1
f 110/33/1 112/34/1 127/35/1 126/36/1
f 112/33/1 4/34/1 14/35/1 127/36/1
f 4/25/1 3/26/1 13/27/1 14/28/1
f 3/37/1 6/38/1 128/39/1 13/40/1
f 6/37/1 10/38/1 129/39/1 128/40/1
f 10/37/1 9/38/1 16/39/1 129/40/1
f 9/26/1 12/25/1 15/28/1 16/27/1
f 12/33/1 114/34/1 130/35/1 15/36/1
f 114/33/1 116/34/1 131/35/1 130/36/1
f 116/33/1 118/34/1 132/35/1 131/36/1
f 118/33/1 120/34/1 133/35/1 132/36/1
f 120/25/1 122/26/1 134/27/1 133/28/1
f 124/25/1 123/26/1 135/27/1 136/28/1
f 123/33/1 125/34/1 137/35/1 135/36/1
f 125/29/1 126/30/1 138/31/1 137/32/1
f 126/29/1 127/30/1 139/31/1 138/32/1
f 127/33/1 14/34/1 18/35/1 139/36/1
f 14/25/1 13/26/1 17/27/1 18/28/1
f 13/21/1 128/22/1 140/23/1 17/24/1
f 128/37/1 129/38/1 141/39/1 140/40/1
f 129/37/1 16/38/1 20/39/1 141/40/1
f 16/26/1 15/25/1 19/28/1 20/27/1
f 15/29/1 130/30/1 142/31/1 19/32/1
f 130/29/1 131/30/1 143/31/1 142/32/1
f 131/29/1 132/30/1 144/31/1 143/32/1
f 132/29/1 133/30/1 145/31/1 144/32/1
f 133/25/1 134/26/1 146/27/1 145/28/1
f 136/25/1 135/26/1 147/27/1 148/28/1
f 135/29/1 137/30/1 149/31/1 147/32/1
f 137/33/1 138/34/1 150/35/1 149/36/1
f 138/29/1 139/30/1 151/31/1 150/32/1
f 139/29/1 18/30/1 22/31/1 151/32/1
f 18/25/1 17/26/1 21/27/1 22/28/1
f 17/21/1 140/22/1 152/23/1 21/24/1
f 140/37/1 141/38/1 153/39/1 152/40/1
f 141/37/1 20/38/1 24/39/1 153/40/1
f 20/26/1 19/25/1 23/28/1 24/27/1
f 19/33/1 142/34/1 154/35/1 23/36/1
f 142/29/1 143/30/1 155/31/1 154/32/1
f 143/29/1 144/30/1 156/31/1 155/32/1
f 144/29/1 145/30/1 157/31/1 156/32/1
f 145/25/1 146/26/1 158/27/1 157/28/1
f 148/25/1 147/26/1 159/27/1 160/28/1
f 147/33/1 149/34/1 161/35/1 159/36/1
f 149/29/1 150/30/1 162/31/1 161/32/1
f 150/29/1 151/30/1 163/31/1 162/32/1
f 151/29/1 22/30/1 26/31/1 163/32/1
f 22/25/1 21/26/1 25/27/1 26/28/1
f 21/21/1 152/22/1 164/23/1 25/24/1
f 152/21/1 153/22/1 165/23/1 164/24/1
f 153/37/1 24/38/1 28/39/1 165/40/1
f 24/26/1 23/25/1 27/28/1 28/27/1
f 23/33/1 154/34/1 166/35/1 27/36/1
f 154/33/1 155/34/1 167/35/1 166/36/1
f 155/29/1 156/30/1 168/31/1 167/32/1
f 156/29/1 157/30/1 169/31/1 168/32/1
f 157/25/1 158/26/1 170/27/1 169/28/1
f 160/25/1 159/26/1 171/27/1 172/28/1
f 159/29/1 161/30/1 173/31/1 171/32/1
f 161/33/1 162/34/1 174/35/1 173/36/1
f 162/33/1 163/34/1 175/35/1 174/36/1
f 163/29/1 26/30/1 30/31/1 175/32/1
f 26/25/1 25/26/1 29/27/1 30/28/1
f 25/37/1 164/38/1 176/39/1 29/40/1
f 164/37/1 165/38/1 177/39/1 176/40/1
f 165/21/1 28/22/1 32/23/1 177/24/1
f 28/26/1 27/25/1 31/28/1 32/27/1
f 27/29/1 166/30/1 178/31/1 31/32/1
f 166/33/1 167/34/1 179/35/1 178/36/1
f 167/33/1 168/34/1 180/35/1 179/36/1
f 168/29/1 169/30/1 181/31/1 180/32/1
f 169/25/1 170/26/1 182/27/1 181/28/1
f 172/25/1 171/26/1 183/27/1 184/28/1
f 171/33/1 173/34/1 185/35/1 183/36/1
f 173/33/1 174/34/1 186/35/1 185/36/1
f 174/29/1 175/30/1 187/31/1 186/32/1
f 175/33/1 30/34/1 34/35/1 187/36/1
f 30/25/1 29/26/1 33/27/1 34/28/1
f 29/37/1 176/38/1 188/39/1 33/40/1
f 176/37/1 177/38/1 189/39/1 188/40/1
f 177/21/1 32/22/1 36/23/1 189/24/1
f 32/26/1 31/25/1 35/28/1 36/27/1
f 31/33/1 178/34/1 190/35/1 35/36/1
f 178/29/1 179/30/1 191/31/1 190/32/1
f 179/29/1 180/30/1 192/31/1 191/32/1
f 180/29/1 181/30/1 193/31/1 192/32/1
f 181/25/1 182/26/1 194/27/1 193/28/1
f 184/25/1 183/26/1 195/27/1 196/28/1
f 183/33/1 185/34/1 197/35/1 195/36/1
f 185/33/1 186/34/1 41/35/1 197/36/1
f 186/29/1 187/30/1 42/31/1 41/32/1
f 187/33/1 34/34/1 38/35/1 42/36/1
f 34/25/1 33/26/1 37/27/1 38/28/1
f 33/21/1 188/22/1 198/23/1 37/24/1
f 188/37/1 189/38/1 199/39/1 198/40/1
f 189/21/1 36/22/1 40/23/1 199/24/1
f 36/26/1 35/25/1 39/28/1 40/27/1
f 35/29/1 190/30/1 49/31/1 39/32/1
f 190/33/1 191/34/1 51/35/1 49/36/1
f 191/29/1 192/30/1 200/31/1 51/32/1
f 192/33/1 193/34/1 201/35/1 200/36/1
f 193/25/1 194/26/1 202/27/1 201/28/1
f 196/25/1 195/26/1 203/27/1 204/28/1
f 195/29/1 197/30/1 205/31/1 203/32/1
f 197/33/1 41/34/1 44/35/1 205/36/1
f 41/41/1 42/42/1 43/43/1 44/44/1
f 42/9/1 38/10/1 45/11/1 43/12/1
f 38/45/1 37/46/1 46/47/1 45/48/1
f 37/21/1 198/22/1 206/23/1 46/24/1
f 198/21/1 199/22/1 207/23/1 206/24/1
f 199/21/1 40/22/1 48/23/1 207/24/1
f 40/46/1 39/45/1 47/48/1 48/47/1
f 39/9/1 49/10/1 50/11/1 47/12/1
f 49/42/1 51/41/1 52/44/1 50/43/1
f 51/33/1 200/34/1 208/35/1 52/36/1
f 200/29/1 201/30/1 209/31/1 208/32/1
f 201/25/1 202/26/1 210/27/1 209/28/1
f 204/25/1 203/26/1 211/27/1 212/28/1
f 203/33/1 205/34/1 213/35/1 211/36/1
f 205/29/1 44/30/1 54/31/1 213/32/1
f 44/25/1 43/26/1 53/27/1 54/28/1
f 43/21/1 45/22/1 214/23/1 53/24/1
f 45/37/1 46/38/1 215/39/1 214/40/1
f 46/21/1 206/22/1 59/23/1 215/24/1
f 206/37/1 207/38/1 60/39/1 59/40/1
f 207/21/1 48/22/1 216/23/1 60/24/1
f 48/37/1 47/38/1 217/39/1 216/40/1
f 47/21/1 50/22/1 56/23/1 217/24/1
f 50/26/1 52/25/1 55/28/1 56/27/1
f 52/29/1 208/30/1 218/31/1 55/32/1
f 208/33/1 209/34/1 219/35/1 218/36/1
f 209/25/1 210/26/1 220/27/1 219/28/1
f 212/25/1 211/26/1 221/27/1 222/28/1
f 211/33/1 213/34/1 223/35/1 221/36/1
f 213/29/1 54/30/1 58/31/1 223/32/1
f 54/25/1 53/26/1 57/27/1 58/28/1
f 53/21/1 214/22/1 224/23/1 57/24/1
f 214/21/1 215/22/1 225/23/1 224/24/1
f 215/21/1 59/22/1 62/23/1 225/24/1
f 59/21/1 60/22/1 61/23/1 62/24/1
f 60/21/1 216/22/1 226/23/1 61/24/1
f 216/21/1 217/22/1 227/23/1 226/24/1
f 217/21/1 56/22/1 64/23/1 227/24/1
f 56/26/1 55/25/1 63/28/1 64/27/1
f 55/29/1 218/30/1 228/31/1 63/32/1
f 218/29/1 219/30/1 229/31/1 228/32/1
f 219/25/1 220/26/1 230/27/1 229/28/1
f 222/25/1 221/26/1 231/27/1 232/28/1
f 221/33/1 223/34/1 233/35/1 231/36/1
f 223/29/1 58/30/1 66/31/1 233/32/1
f 58/25/1 57/26/1 65/27/1 66/28/1
f 57/37/1 224/38/1 234/39/1 65/40/1
f 224/37/1 225/38/1 71/39/1 234/40/1
f 225/21/1 62/22/1 72/23/1 71/24/1
f 62/21/1 61/22/1 75/23/1 72/24/1
f 61/37/1 226/38/1 76/39/1 75/40/1
f 226/37/1 227/38/1 235/39/1 76/40/1
f 227/21/1 64/22/1 68/23/1 235/24/1
f 64/26/1 63/25/1 67/28/1 68/27/1
f 63/29/1 228/30/1 236/31/1 67/32/1
f 228/29/1 229/30/1 237/31/1 236/32/1
f 229/25/1 230/26/1 238/27/1 237/28/1
f 232/25/1 231/26/1 239/27/1 240/28/1
f 231/29/1 233/30/1 241/31/1 239/32/1
f 233/29/1 66/30/1 70/31/1 241/32/1
f 66/25/1 65/26/1 69/27/1 70/28/1
f 65/21/1 234/22/1 83/23/1 69/24/1
f 234/21/1 71/22/1 74/23/1 83/24/1
f 71/37/1 72/38/1 73/39/1 74/40/1
f 72/21/1 75/22/1 78/23/1 73/24/1
f 75/21/1 76/22/1 77/23/1 78/24/1
f 76/37/1 235/38/1 89/39/1 77/40/1
f 235/21/1 68/22/1 80/23/1 89/24/1
f 68/26/1 67/25/1 79/28/1 80/27/1
f 67/33/1 236/34/1 242/35/1 79/36/1
f 236/33/1 237/34/1 243/35/1 242/36/1
f 237/25/1 238/26/1 244/27/1 243/28/1
f 240/25/1 239/26/1 245/27/1 246/28/1
f 239/49/1 241/50/1 247/51/1 245/52/1
f 241/53/1 70/54/1 82/55/1 247/56/1
f 70/26/1 69/25/1 81/28/1 82/27/1
f 69/57/1 83/58/1 84/59/1 81/60/1
f 83/57/1 74/58/1 85/59/1 84/60/1
f 74/57/1 73/58/1 86/59/1 85/60/1
f 73/57/1 78/58/1 87/59/1 86/60/1
f 78/57/1 77/58/1 88/59/1 87/60/1
f 77/57/1 89/58/1 90/59/1 88/60/1
f 89/57/1 80/58/1 91/59/1 90/60/1
f 80/26/1 79/25/1 92/28/1 91/27/1
f 79/54/1 242/53/1 248/56/1 92/55/1
f 242/49/1 243/50/1 249/51/1 248/52/1
f 243/25/1 244/26/1 250/27/1 249/28/1
f 246/61/1 245/62/1 251/63/1 252/64/1
f 245/9/1 247/10/1 253/11/1 251/12/1
f 247/9/1 82/10/1 94/11/1 253/12/1
f 82/65/1 81/66/1 93/67/1 94/68/1
f 81/9/1 84/10/1 95/11/1 93/12/1
f 84/9/1 85/10/1 96/11/1 95/12/1
f 85/9/1 86/10/1 97/11/1 96/12/1
f 86/9/1 87/10/1 98/11/1 97/12/1
f 87/9/1 88/10/1 99/11/1 98/12/1
f 88/9/1 90/10/1 100/11/1 99/12/1
f 90/9/1 91/10/1 101/11/1 100/12/1
f 91/65/1 92/66/1 102/67/1 101/68/1
f 92/9/1 248/10/1 254/11/1 102/12/1
f 248/9/1 249/10/1 255/11/1 254/12/1
f 249/62/1 250/61/1 256/64/1 255/63/1

g mesh_0003
f 125/69/1 126/70/1 138/71/1 137/72/1
f 126/69/1 127/70/1 139/71/1 138/72/1
f 130/69/1 131/70/1 143/71/1 142/72/1
f 131/69/1 132/70/1 144/71/1 143/72/1
f 149/69/1 150/70/1 162/71/1 161/72/1
f 150/69/1 151/70/1 163/71/1 162/72/1
f 154/69/1 155/70/1 167/71/1 166/72/1
f 155/69/1 156/70/1 168/71/1 167/72/1
f 42/73/1 38/74/1 45/75/1 43/76/1
f 39/73/1 49/74/1 50/75/1 47/76/1
f 59/77/1 60/78/1 61/79/1 62/80/1
f 221/81/1 223/82/1 233/83/1 231/84/1
f 223/81/1 58/82/1 66/83/1 233/84/1
f 63/81/1 228/82/1 236/83/1 67/84/1
f 228/81/1 229/82/1 237/83/1 236/84/1
f 231/81/1 233/82/1 241/83/1 239/84/1
f 233/81/1 66/82/1 70/83/1 241/84/1
f 71/85/1 72/86/1 73/87/1 74/88/1
f 75/85/1 76/86/1 77/87/1 78/88/1
f 67/81/1 236/82/1 242/83/1 79/84/1
f 236/81/1 237/82/1 243/83/1 242/84/1
f 69/89/1 83/90/1 84/91/1 81/92/1
f 83/89/1 74/90/1 85/91/1 84/92/1
f 77/89/1 89/90/1 90/91/1 88/92/1
f 89/89/1 80/90/1 91/91/1 90/92/1

g mesh_0004
f 125/81/1 126/82/1 138/83/1 137/84/1
f 126/81/1 127/82/1 139/83/1 138/84/1
f 130/81/1 131/82/1 143/83/1 142/84/1
f 131/81/1 132/82/1 144/83/1 143/84/1
f 149/81/1 150/82/1 162/83/1 161/84/1
f 150/81/1 151/82/1 163/83/1 162/84/1
f 154/81/1 155/82/1 167/83/1 166/84/1
f 155/81/1 156/82/1 168/83/1 167/84/1
f 173/93/1 174/94/1 186/95/1 185/96/1
f 179/93/1 180/94/1 192/95/1 191/96/1
f 37/81/1 198/82/1 206/83/1 46/84/1
f 199/81/1 40/82/1 48/83/1 207/84/1
f 214/81/1 215/82/1 225/83/1 224/84/1
f 216/81/1 217/82/1 227/83/1 226/84/1
f 72/81/1 75/82/1 78/83/1 73/84/1

g mesh_0005
f 239/97/1 241/98/1 247/99/1 245/100/1
f 73/101/1 78/102/1 87/103/1 86/104/1
f 242/97/1 243/98/1 249/99/1 248/100/1

