# Wavefront OBJ file automatically generated by Tiled2Unity

# Vertices (Count = 121)
v 0 -10 0
v -1 -10 0
v -1 -9 0
v 0 -9 0
v -2 -10 0
v -2 -9 0
v -3 -10 0
v -3 -9 0
v -4 -10 0
v -4 -9 0
v -5 -10 0
v -5 -9 0
v -6 -10 0
v -6 -9 0
v -7 -10 0
v -7 -9 0
v -8 -10 0
v -8 -9 0
v -9 -10 0
v -9 -9 0
v -10 -10 0
v -10 -9 0
v -1 -8 0
v 0 -8 0
v -10 -8 0
v -9 -8 0
v -1 -7 0
v 0 -7 0
v -10 -7 0
v -9 -7 0
v -1 -6 0
v 0 -6 0
v -10 -6 0
v -9 -6 0
v -1 -5 0
v 0 -5 0
v -10 -5 0
v -9 -5 0
v -1 -4 0
v 0 -4 0
v -10 -4 0
v -9 -4 0
v -1 -3 0
v 0 -3 0
v -10 -3 0
v -9 -3 0
v -1 -2 0
v 0 -2 0
v -10 -2 0
v -9 -2 0
v -1 -1 0
v 0 -1 0
v -2 -2 0
v -2 -1 0
v -3 -2 0
v -3 -1 0
v -4 -2 0
v -4 -1 0
v -5 -2 0
v -5 -1 0
v -6 -2 0
v -6 -1 0
v -7 -2 0
v -7 -1 0
v -8 -2 0
v -8 -1 0
v -9 -1 0
v -10 -1 0
v -2 -8 0
v -3 -8 0
v -4 -8 0
v -5 -8 0
v -6 -8 0
v -7 -8 0
v -8 -8 0
v -2 -7 0
v -3 -7 0
v -4 -7 0
v -5 -7 0
v -6 -7 0
v -7 -7 0
v -8 -7 0
v -2 -6 0
v -3 -6 0
v -4 -6 0
v -5 -6 0
v -6 -6 0
v -7 -6 0
v -8 -6 0
v -2 -5 0
v -3 -5 0
v -4 -5 0
v -5 -5 0
v -6 -5 0
v -7 -5 0
v -8 -5 0
v -2 -4 0
v -3 -4 0
v -4 -4 0
v -5 -4 0
v -6 -4 0
v -7 -4 0
v -8 -4 0
v -2 -3 0
v -3 -3 0
v -4 -3 0
v -5 -3 0
v -6 -3 0
v -7 -3 0
v -8 -3 0
v -1 0 0
v 0 0 0
v -2 0 0
v -3 0 0
v -4 0 0
v -5 0 0
v -6 0 0
v -7 0 0
v -8 0 0
v -9 0 0
v -10 0 0

# Texture cooridinates (Count = 124)
vt 5.918561E-05 0.9998779
vt 5.918561E-05 0.0001220703
vt 0.4847893 0.0001220703
vt 0.4847893 0.9998779
vt 0.9999408 0.9998779
vt 0.5152107 0.9998779
vt 0.5152107 0.0001220703
vt 0.9999408 0.0001220703
vt 2.017691E-06 0.09696192
vt 0.01652691 0.09696192
vt 0.01652691 0.1273727
vt 2.017691E-06 0.1273727
vt 0.017564 0.09696192
vt 0.03408889 0.09696192
vt 0.03408889 0.1273727
vt 0.017564 0.1273727
vt 0.03512599 0.09696192
vt 0.05165087 0.09696192
vt 0.05165087 0.1273727
vt 0.03512599 0.1273727
vt 2.017691E-06 0.1292813
vt 0.01652691 0.1292813
vt 0.01652691 0.1596921
vt 2.017691E-06 0.1596921
vt 0.017564 0.1292813
vt 0.03408889 0.1292813
vt 0.03408889 0.1596921
vt 0.017564 0.1596921
vt 0.03512599 0.1292813
vt 0.05165087 0.1292813
vt 0.05165087 0.1596921
vt 0.03512599 0.1596921
vt 0.7190062 0.482886
vt 0.7024813 0.482886
vt 0.7024813 0.4524752
vt 0.7190062 0.4524752
vt 0.7014443 0.482886
vt 0.6849194 0.482886
vt 0.6849194 0.4524752
vt 0.7014443 0.4524752
vt 0.6838823 0.482886
vt 0.6673574 0.482886
vt 0.6673574 0.4524752
vt 0.6838823 0.4524752
vt 0.1053739 0.1292813
vt 0.1218988 0.1292813
vt 0.1218988 0.1596921
vt 0.1053739 0.1596921
vt 0.1404979 0.1292813
vt 0.1570228 0.1292813
vt 0.1570228 0.1596921
vt 0.1404979 0.1596921
vt 0.8254153 0.09696192
vt 0.8419401 0.09696192
vt 0.8419401 0.1273727
vt 0.8254153 0.1273727
vt 0.8429772 0.09696192
vt 0.8595021 0.09696192
vt 0.8595021 0.1273727
vt 0.8429772 0.1273727
vt 0.8605392 0.09696192
vt 0.8770641 0.09696192
vt 0.8770641 0.1273727
vt 0.8605392 0.1273727
vt 0.8254153 0.1292813
vt 0.8419401 0.1292813
vt 0.8419401 0.1596921
vt 0.8254153 0.1596921
vt 0.8429772 0.1292813
vt 0.8595021 0.1292813
vt 0.8595021 0.1596921
vt 0.8429772 0.1596921
vt 0.8605392 0.1292813
vt 0.8770641 0.1292813
vt 0.8770641 0.1596921
vt 0.8605392 0.1596921
vt 0.8254153 0.1616006
vt 0.8419401 0.1616006
vt 0.8419401 0.1920115
vt 0.8254153 0.1920115
vt 0.8429772 0.1616006
vt 0.8595021 0.1616006
vt 0.8595021 0.1920115
vt 0.8429772 0.1920115
vt 0.8605392 0.1616006
vt 0.8770641 0.1616006
vt 0.8770641 0.1920115
vt 0.8605392 0.1920115
vt 0.1053739 0.1616006
vt 0.1218988 0.1616006
vt 0.1218988 0.1920115
vt 0.1053739 0.1920115
vt 0.1404979 0.1616006
vt 0.1570228 0.1616006
vt 0.1570228 0.1920115
vt 0.1404979 0.1920115
vt 0.8956632 0.9049467
vt 0.9121881 0.9049467
vt 0.9121881 0.9353575
vt 0.8956632 0.9353575
vt 0.9132252 0.9049467
vt 0.92975 0.9049467
vt 0.92975 0.9353575
vt 0.9132252 0.9353575
vt 0.9307871 0.9049467
vt 0.9473121 0.9049467
vt 0.9473121 0.9353575
vt 0.9307871 0.9353575
vt 0.9473121 0.9695855
vt 0.9307871 0.9695855
vt 0.9307871 0.9999963
vt 0.9473121 0.9999963
vt 0.4566136 0.9049467
vt 0.4731385 0.9049467
vt 0.4731385 0.9353575
vt 0.4566136 0.9353575
vt 0.4390516 0.9049467
vt 0.4555765 0.9049467
vt 0.4555765 0.9353575
vt 0.4390516 0.9353575
vt 0.4741756 0.9049467
vt 0.4907005 0.9049467
vt 0.4907005 0.9353575
vt 0.4741756 0.9353575

# Normal
vn 0 0 -1

# Groups (Count = 4)

g mesh_0001
f 1/1/1 2/2/1 3/3/1 4/4/1
f 2/5/1 5/6/1 6/7/1 3/8/1
f 5/5/1 7/6/1 8/7/1 6/8/1
f 7/5/1 9/6/1 10/7/1 8/8/1
f 9/5/1 11/6/1 12/7/1 10/8/1
f 11/5/1 13/6/1 14/7/1 12/8/1
f 13/5/1 15/6/1 16/7/1 14/8/1
f 15/5/1 17/6/1 18/7/1 16/8/1
f 17/5/1 19/6/1 20/7/1 18/8/1
f 19/4/1 21/1/1 22/2/1 20/3/1
f 4/6/1 3/7/1 23/8/1 24/5/1
f 20/8/1 22/5/1 25/6/1 26/7/1
f 24/6/1 23/7/1 27/8/1 28/5/1
f 26/8/1 25/5/1 29/6/1 30/7/1
f 28/6/1 27/7/1 31/8/1 32/5/1
f 30/8/1 29/5/1 33/6/1 34/7/1
f 32/6/1 31/7/1 35/8/1 36/5/1
f 34/8/1 33/5/1 37/6/1 38/7/1
f 36/6/1 35/7/1 39/8/1 40/5/1
f 38/8/1 37/5/1 41/6/1 42/7/1
f 40/6/1 39/7/1 43/8/1 44/5/1
f 42/8/1 41/5/1 45/6/1 46/7/1
f 44/6/1 43/7/1 47/8/1 48/5/1
f 46/8/1 45/5/1 49/6/1 50/7/1
f 48/5/1 47/6/1 51/7/1 52/8/1
f 47/5/1 53/6/1 54/7/1 51/8/1
f 53/5/1 55/6/1 56/7/1 54/8/1
f 55/5/1 57/6/1 58/7/1 56/8/1
f 57/5/1 59/6/1 60/7/1 58/8/1
f 59/5/1 61/6/1 62/7/1 60/8/1
f 61/5/1 63/6/1 64/7/1 62/8/1
f 63/5/1 65/6/1 66/7/1 64/8/1
f 65/5/1 50/6/1 67/7/1 66/8/1
f 50/5/1 49/6/1 68/7/1 67/8/1

g mesh_0002
f 1/9/1 2/10/1 3/11/1 4/12/1
f 2/13/1 5/14/1 6/15/1 3/16/1
f 5/13/1 7/14/1 8/15/1 6/16/1
f 7/13/1 9/14/1 10/15/1 8/16/1
f 9/13/1 11/14/1 12/15/1 10/16/1
f 11/13/1 13/14/1 14/15/1 12/16/1
f 13/13/1 15/14/1 16/15/1 14/16/1
f 15/13/1 17/14/1 18/15/1 16/16/1
f 17/13/1 19/14/1 20/15/1 18/16/1
f 19/17/1 21/18/1 22/19/1 20/20/1
f 4/21/1 3/22/1 23/23/1 24/24/1
f 3/25/1 6/26/1 69/27/1 23/28/1
f 6/25/1 8/26/1 70/27/1 69/28/1
f 8/25/1 10/26/1 71/27/1 70/28/1
f 10/25/1 12/26/1 72/27/1 71/28/1
f 12/25/1 14/26/1 73/27/1 72/28/1
f 14/25/1 16/26/1 74/27/1 73/28/1
f 16/25/1 18/26/1 75/27/1 74/28/1
f 18/25/1 20/26/1 26/27/1 75/28/1
f 20/29/1 22/30/1 25/31/1 26/32/1
f 24/21/1 23/22/1 27/23/1 28/24/1
f 23/25/1 69/26/1 76/27/1 27/28/1
f 69/25/1 70/26/1 77/27/1 76/28/1
f 70/25/1 71/26/1 78/27/1 77/28/1
f 71/25/1 72/26/1 79/27/1 78/28/1
f 72/25/1 73/26/1 80/27/1 79/28/1
f 73/25/1 74/26/1 81/27/1 80/28/1
f 74/25/1 75/26/1 82/27/1 81/28/1
f 75/25/1 26/26/1 30/27/1 82/28/1
f 26/29/1 25/30/1 29/31/1 30/32/1
f 28/21/1 27/22/1 31/23/1 32/24/1
f 27/25/1 76/26/1 83/27/1 31/28/1
f 76/25/1 77/26/1 84/27/1 83/28/1
f 77/25/1 78/26/1 85/27/1 84/28/1
f 78/25/1 79/26/1 86/27/1 85/28/1
f 79/25/1 80/26/1 87/27/1 86/28/1
f 80/25/1 81/26/1 88/27/1 87/28/1
f 81/25/1 82/26/1 89/27/1 88/28/1
f 82/25/1 30/26/1 34/27/1 89/28/1
f 30/29/1 29/30/1 33/31/1 34/32/1
f 32/21/1 31/22/1 35/23/1 36/24/1
f 31/25/1 83/26/1 90/27/1 35/28/1
f 83/25/1 84/26/1 91/27/1 90/28/1
f 84/25/1 85/26/1 92/27/1 91/28/1
f 85/25/1 86/26/1 93/27/1 92/28/1
f 86/25/1 87/26/1 94/27/1 93/28/1
f 87/25/1 88/26/1 95/27/1 94/28/1
f 88/25/1 89/26/1 96/27/1 95/28/1
f 89/25/1 34/26/1 38/27/1 96/28/1
f 34/29/1 33/30/1 37/31/1 38/32/1
f 36/21/1 35/22/1 39/23/1 40/24/1
f 35/25/1 90/26/1 97/27/1 39/28/1
f 90/25/1 91/26/1 98/27/1 97/28/1
f 91/25/1 92/26/1 99/27/1 98/28/1
f 92/25/1 93/26/1 100/27/1 99/28/1
f 93/25/1 94/26/1 101/27/1 100/28/1
f 94/25/1 95/26/1 102/27/1 101/28/1
f 95/25/1 96/26/1 103/27/1 102/28/1
f 96/25/1 38/26/1 42/27/1 103/28/1
f 38/29/1 37/30/1 41/31/1 42/32/1
f 40/21/1 39/22/1 43/23/1 44/24/1
f 39/25/1 97/26/1 104/27/1 43/28/1
f 97/25/1 98/26/1 105/27/1 104/28/1
f 98/25/1 99/26/1 106/27/1 105/28/1
f 99/25/1 100/26/1 107/27/1 106/28/1
f 100/25/1 101/26/1 108/27/1 107/28/1
f 101/25/1 102/26/1 109/27/1 108/28/1
f 102/25/1 103/26/1 110/27/1 109/28/1
f 103/25/1 42/26/1 46/27/1 110/28/1
f 42/29/1 41/30/1 45/31/1 46/32/1
f 44/21/1 43/22/1 47/23/1 48/24/1
f 43/25/1 104/26/1 53/27/1 47/28/1
f 104/25/1 105/26/1 55/27/1 53/28/1
f 105/25/1 106/26/1 57/27/1 55/28/1
f 106/25/1 107/26/1 59/27/1 57/28/1
f 107/25/1 108/26/1 61/27/1 59/28/1
f 108/25/1 109/26/1 63/27/1 61/28/1
f 109/25/1 110/26/1 65/27/1 63/28/1
f 110/25/1 46/26/1 50/27/1 65/28/1
f 46/29/1 45/30/1 49/31/1 50/32/1
f 48/33/1 47/34/1 51/35/1 52/36/1
f 47/37/1 53/38/1 54/39/1 51/40/1
f 53/37/1 55/38/1 56/39/1 54/40/1
f 55/37/1 57/38/1 58/39/1 56/40/1
f 57/37/1 59/38/1 60/39/1 58/40/1
f 59/37/1 61/38/1 62/39/1 60/40/1
f 61/37/1 63/38/1 64/39/1 62/40/1
f 63/37/1 65/38/1 66/39/1 64/40/1
f 65/37/1 50/38/1 67/39/1 66/40/1
f 50/41/1 49/42/1 68/43/1 67/44/1
f 52/43/1 51/44/1 111/41/1 112/42/1
f 51/39/1 54/40/1 113/37/1 111/38/1
f 54/39/1 56/40/1 114/37/1 113/38/1
f 56/39/1 58/40/1 115/37/1 114/38/1
f 58/39/1 60/40/1 116/37/1 115/38/1
f 60/39/1 62/40/1 117/37/1 116/38/1
f 62/39/1 64/40/1 118/37/1 117/38/1
f 64/39/1 66/40/1 119/37/1 118/38/1
f 66/39/1 67/40/1 120/37/1 119/38/1
f 67/35/1 68/36/1 121/33/1 120/34/1

g mesh_0003
f 9/45/1 11/46/1 12/47/1 10/48/1
f 11/49/1 13/50/1 14/51/1 12/52/1
f 3/53/1 6/54/1 69/55/1 23/56/1
f 6/57/1 8/58/1 70/59/1 69/60/1
f 8/61/1 10/62/1 71/63/1 70/64/1
f 10/45/1 12/46/1 72/47/1 71/48/1
f 12/49/1 14/50/1 73/51/1 72/52/1
f 14/53/1 16/54/1 74/55/1 73/56/1
f 16/57/1 18/58/1 75/59/1 74/60/1
f 18/61/1 20/62/1 26/63/1 75/64/1
f 23/65/1 69/66/1 76/67/1 27/68/1
f 69/69/1 70/70/1 77/71/1 76/72/1
f 70/73/1 71/74/1 78/75/1 77/76/1
f 71/45/1 72/46/1 79/47/1 78/48/1
f 72/49/1 73/50/1 80/51/1 79/52/1
f 73/65/1 74/66/1 81/67/1 80/68/1
f 74/69/1 75/70/1 82/71/1 81/72/1
f 75/73/1 26/74/1 30/75/1 82/76/1
f 27/77/1 76/78/1 83/79/1 31/80/1
f 76/81/1 77/82/1 84/83/1 83/84/1
f 77/85/1 78/86/1 85/87/1 84/88/1
f 78/45/1 79/46/1 86/47/1 85/48/1
f 79/49/1 80/50/1 87/51/1 86/52/1
f 80/77/1 81/78/1 88/79/1 87/80/1
f 81/81/1 82/82/1 89/83/1 88/84/1
f 82/85/1 30/86/1 34/87/1 89/88/1
f 31/53/1 83/54/1 90/55/1 35/56/1
f 83/57/1 84/58/1 91/59/1 90/60/1
f 84/61/1 85/62/1 92/63/1 91/64/1
f 85/45/1 86/46/1 93/47/1 92/48/1
f 86/49/1 87/50/1 94/51/1 93/52/1
f 87/53/1 88/54/1 95/55/1 94/56/1
f 88/57/1 89/58/1 96/59/1 95/60/1
f 89/61/1 34/62/1 38/63/1 96/64/1
f 35/65/1 90/66/1 97/67/1 39/68/1
f 90/69/1 91/70/1 98/71/1 97/72/1
f 91/73/1 92/74/1 99/75/1 98/76/1
f 92/45/1 93/46/1 100/47/1 99/48/1
f 93/49/1 94/50/1 101/51/1 100/52/1
f 94/65/1 95/66/1 102/67/1 101/68/1
f 95/69/1 96/70/1 103/71/1 102/72/1
f 96/73/1 38/74/1 42/75/1 103/76/1
f 39/77/1 97/78/1 104/79/1 43/80/1
f 97/81/1 98/82/1 105/83/1 104/84/1
f 98/85/1 99/86/1 106/87/1 105/88/1
f 99/89/1 100/90/1 107/91/1 106/92/1
f 100/93/1 101/94/1 108/95/1 107/96/1
f 101/77/1 102/78/1 109/79/1 108/80/1
f 102/81/1 103/82/1 110/83/1 109/84/1
f 103/85/1 42/86/1 46/87/1 110/88/1
f 52/97/1 51/98/1 111/99/1 112/100/1
f 51/101/1 54/102/1 113/103/1 111/104/1
f 54/105/1 56/106/1 114/107/1 113/108/1
f 58/109/1 60/110/1 116/111/1 115/112/1
f 60/110/1 62/109/1 117/112/1 116/111/1
f 64/97/1 66/98/1 119/99/1 118/100/1
f 66/101/1 67/102/1 120/103/1 119/104/1
f 67/105/1 68/106/1 121/107/1 120/108/1

g mesh_0004
f 69/113/1 70/114/1 77/115/1 76/116/1
f 74/113/1 75/114/1 82/115/1 81/116/1
f 90/117/1 91/118/1 98/119/1 97/120/1
f 95/121/1 96/122/1 103/123/1 102/124/1

